<?xml version="1.0" encoding="utf-8"?>
<!-- Generator: Adobe Illustrator 22.0.0, SVG Export Plug-In . SVG Version: 6.00 Build 0)  -->
<svg version="1.1" id="Layer_1" xmlns="http://www.w3.org/2000/svg" xmlns:xlink="http://www.w3.org/1999/xlink" x="0px" y="0px"
	 viewBox="0 0 658.118 186.76" style="enable-background:new 0 0 658.118 186.76;" xml:space="preserve">
<style type="text/css">
	.st0{fill:#FA14FF;}
</style>
<g>
	<g>
		<path class="st0" d="M68.383,122.92c0-24.359,13.72-39.479,26.6-46.199c-3.92-2.801-6.44-7.841-6.44-13.16
			c0-9.521,5.04-15.681,13.16-17.36c-1.4-4.2-2.24-9.24-2.24-14.84c0-9.24,2.24-19.6,7.28-31.359h48.16
			c5.04,11.76,7.28,22.119,7.28,31.359c0,5.6-0.84,10.64-2.24,14.84c8.12,1.68,13.16,7.84,13.16,17.36c0,5.04-2.24,9.52-5.6,12.6
			c16.24,5.04,25.76,14.28,25.76,28c0,24.08-33.04,30.52-33.04,50.68c0,10.36,12.04,20.16,32.76,26.88v1.68
			c-6.44,1.96-16.52,3.36-27.439,3.36C116.262,186.759,68.383,169.399,68.383,122.92z M106.183,73.64h49.28
			c5.04,0,10.36-3.92,10.36-10.08s-3.92-10.36-10.36-10.36h-49.28c-6.44,0-10.36,4.2-10.36,10.36S101.143,73.64,106.183,73.64z
			 M109.263,45.92h43.12c1.68-4.199,2.52-8.96,2.52-14.56c0-7-1.4-15.12-4.76-24.08h-38.64c-3.36,8.96-4.76,17.08-4.76,24.08
			C106.743,36.96,107.583,41.72,109.263,45.92z"/>
		<path class="st0" d="M214.698,54.32c-0.28-1.4-0.56-2.8-0.56-4.2c0-13.72,15.96-22.68,37.52-25.199v-11.2
			c0-4.2,1.12-8.12,8.96-8.12h6.72c7.84,0,8.96,3.92,8.96,8.12v11.2c21.56,2.52,37.52,11.479,37.52,25.199c0,1.4-0.28,2.8-0.56,4.2
			c5.04,0,13.159,1.96,13.159,13.44c-15.399,4.199-36.119,5.88-62.439,5.88c-26.32,0-47.04-1.681-62.439-5.88
			C201.539,56.28,209.658,54.32,214.698,54.32z M201.539,75.6c15.96,3.64,37.24,5.319,62.439,5.319c25.48,0,46.479-1.68,62.439-5.6
			v111.439H201.539V75.6z M223.658,172.2c2.24,0,3.64-1.681,3.64-3.641V94.36c0-1.96-1.4-3.641-3.64-3.641
			c-1.96,0-3.64,1.681-3.64,3.641v74.199C220.019,170.519,221.698,172.2,223.658,172.2z M268.178,19.32
			c3.08,0,4.479-1.68,4.479-4.479c0-2.801-1.399-4.48-4.479-4.48s-4.48,1.68-4.48,4.48C263.698,17.64,265.098,19.32,268.178,19.32z
			 M374.578,77c-6.439,10.92-14,15.12-21,15.12c-10.08,0-18.2-8.96-18.2-17.92c0-7,5.32-14,18.761-16.52l-58.24-36.12
			c-0.84-0.56-1.12-1.12-1.12-1.96c0-1.12,1.12-2.521,3.36-1.96l47.6,9.52c-0.28-1.96-0.28-3.92-0.28-5.6
			c0-14.56,7.561-21.56,16.521-21.56c11.199,0,24.64,11.76,26.04,33.319c6.439-18.2,16.52-25.76,24.919-25.76
			c8.4,0,15.12,7.84,15.12,20.439c0,4.761-0.84,10.08-2.8,15.96c6.16-2.52,11.76-3.64,16.24-3.64c10.92,0,17.08,6.72,17.08,20.44
			c0,14-7.28,19.88-18.48,19.88c-7.279,0-15.96-2.24-25.479-6.44c8.96,9.24,14.279,18.2,14.279,25.76
			c0,12.88-17.359,19.6-29.119,19.6C382.418,119.559,374.018,103.32,374.578,77z M349.658,140.28c6.44,0,15.12,2.52,25.479,9.239
			c-3.92-5.319-5.6-9.8-5.6-13.439c0-8.68,8.4-13.16,17.36-13.16c9.8,0,19.88,5.32,19.88,17.08c0,1.68-0.28,3.64-0.84,5.88
			c12.319-9.52,23.239-13.16,31.919-13.16c12.881,0,21,8.12,21,16.8c0,9.24-9.239,18.48-31.079,18.48c-2.24,0-4.48,0-7-0.28
			c0.84,2.24,1.399,4.48,1.399,6.44c0,8.399-8.12,12.6-24.92,12.6c-14.84,0-21.279-4.2-21.279-10.92c0-3.36,1.68-7.56,4.76-12.04
			c-9.8,3.92-17.92,5.6-24.64,5.6c-15.12,0-22.4-8.399-22.4-15.96C333.698,146.719,339.298,140.28,349.658,140.28z"/>
		<path class="st0" d="M464.854,170.519c0-12.04,9.8-16.52,22.681-16.52c2.239,0,4.76,0.28,6.72,0.56l16.52-39.199l-30.52-37.24
			c-9.8-12.04-15.4-24.359-15.4-40.319c0-17.08,9.521-37.8,29.4-37.8l65.8,154.559c1.96-0.56,3.92-0.84,6.16-0.84
			c13.159,0,23.52,4.48,23.52,16.8c0,12.32-10.64,16.24-24.08,16.24c-13.16,0-22.68-4.479-22.68-16.8c0-7.84,3.64-11.48,9.24-12.88
			l-25.2-22.12l-25.2,22.12c5.601,1.399,9.521,5.04,9.521,12.88c0,12.32-9.8,16.8-22.96,16.8
			C474.934,186.759,464.854,182.839,464.854,170.519z M487.535,180.319c10.359,0,17.079-1.399,17.079-10.079
			c0-8.681-6.72-10.08-16.52-10.08c-10.08,0-16.52,1.399-16.52,10.08C471.575,178.639,477.734,180.319,487.535,180.319z
			 M527.295,119.839c3.08,0,4.479-1.68,4.479-4.479s-1.399-4.48-4.479-4.48s-4.48,1.681-4.48,4.48S524.215,119.839,527.295,119.839z
			 M560.054,0.001c19.6,0,29.68,21,29.68,38.079c0,16.24-6.44,28.28-15.96,40.04l-25.2,31.08l-17.359-40.04L560.054,0.001z
			 M565.934,180.319c10.359,0,17.08-1.399,17.08-10.079c0-8.681-6.721-10.08-16.521-10.08c-10.08,0-16.52,1.399-16.52,10.08
			C549.974,178.639,556.134,180.319,565.934,180.319z"/>
	</g>
</g>
</svg>
