<?xml version="1.0" encoding="utf-8"?>
<!-- Generator: Adobe Illustrator 22.0.0, SVG Export Plug-In . SVG Version: 6.00 Build 0)  -->
<svg version="1.1" id="Layer_1" xmlns="http://www.w3.org/2000/svg" xmlns:xlink="http://www.w3.org/1999/xlink" x="0px" y="0px"
	 viewBox="0 0 1605.141 728.063" style="enable-background:new 0 0 1605.141 728.063;" xml:space="preserve">
<style type="text/css">
	.st0{fill:#FFFFFF;}
</style>
<g>
	<path class="st0" d="M5.141,430.599l219.351-14.101c86.855-5.584,129.059,17.293,129.059,70.297
		c0,48.438-34.354,72.457-112.377,79.144v0.893c80.479-2.668,122.19,23.878,122.19,76.987c0,56.315-47.111,84.244-143.29,84.244
		H5.141V430.599z M206.336,519.209c0-15.076-10.306-23.004-28.462-22.131l-25.518,1.228v46.477l25.518-0.98
		C196.03,543.107,206.336,534.286,206.336,519.209z M181.8,650.418c18.156-0.293,28.462-8.893,28.462-23.981
		s-10.306-23.254-28.462-22.784l-29.443,0.763v46.479L181.8,650.418z"/>
	<path class="st0" d="M383.236,406.293l147.215-9.464v66.248l-6.874,82.578l0.981-0.035l101.09-154.911l144.76-9.306v346.659
		H623.194v-67.437l6.869-84.016l-0.981,0.028L527.996,728.063h-144.76V406.293z"/>
	<path class="st0" d="M1031.484,618.51l-74.587,1.445v108.108H809.682V378.879l147.215-9.464v117.329l74.587-3.226V364.62
		l147.215-9.464v372.907h-147.215V618.51z"/>
	<path class="st0" d="M1217.969,352.632l147.215-9.464v76.981l-6.874,95.916l0.981-0.035l101.09-178.982l144.76-9.306v400.321
		h-147.215v-78.17l6.869-97.355l-0.981,0.028l-101.086,175.497h-144.76L1217.969,352.632L1217.969,352.632z"/>
</g>
<g>
	<g>
		<path class="st0" d="M383.236,0h147.215v71.099l-6.874,88.562l0.981-0.028L625.648,0h144.76v340.064l-147.215,9.464v-69.905
			l6.869-87.127l-0.981,0.035L527.996,355.647l-144.76,9.306V0z"/>
		<path class="st0" d="M1031.484,225.833l-74.587,3.35v98.892l-147.215,9.464V0h147.215v107.327l74.587-1.569V0h147.215v313.816
			l-147.215,9.464V225.833z"/>
		<path class="st0" d="M1217.969,0h147.215v60.367l-6.874,75.223l0.981-0.028L1460.381,0h144.76v286.402l-147.215,9.464v-59.172
			l6.869-73.788l-0.981,0.035l-101.086,139.044l-144.76,9.306L1217.969,0L1217.969,0z"/>
	</g>
	<g>
		<path class="st0" d="M100.861,142.296L0,144.704V0h349.323v136.364l-100.861,2.408v234.845l-147.601,9.489L100.861,142.296
			L100.861,142.296z"/>
	</g>
</g>
</svg>
